<?xml version="1.0" encoding="UTF-8" ?>
<!DOCTYPE svg PUBLIC "-//W3C//DTD SVG 1.1//EN" "http://www.w3.org/Graphics/SVG/1.1/DTD/svg11.dtd">
<svg width="757pt" height="477pt" viewBox="0 0 757 477" version="1.1" xmlns="http://www.w3.org/2000/svg">
<g id="#2a602aff">
<path fill="#2a602a" opacity="1.00" d=" M 153.56 0.00 L 604.43 0.00 C 621.49 1.64 636.14 16.77 636.49 34.02 C 636.51 151.00 636.49 267.97 636.50 384.95 C 633.75 384.04 631.00 383.13 628.26 382.22 C 628.23 266.48 628.26 150.75 628.25 35.01 C 628.21 22.88 618.90 11.73 607.19 8.96 C 601.87 7.74 596.37 8.05 590.96 7.99 C 449.64 8.00 308.33 8.00 167.02 7.99 C 160.35 8.07 153.38 7.54 147.07 10.16 C 136.31 14.40 129.15 25.68 129.53 37.20 C 129.45 152.12 129.53 267.05 129.50 381.97 C 126.76 382.88 124.03 383.78 121.29 384.68 C 121.19 270.13 121.29 155.58 121.24 41.03 C 121.24 35.99 121.34 30.87 122.74 25.99 C 126.52 12.12 139.30 1.49 153.56 0.00 Z" />
<path fill="#2a602a" opacity="1.00" d=" M 148.06 30.47 C 154.96 30.53 161.85 30.49 168.75 30.50 C 168.75 31.13 168.75 32.38 168.75 33.00 C 166.28 33.49 162.33 33.51 162.18 36.89 C 161.76 45.58 162.11 54.31 162.00 63.01 C 161.91 67.45 162.85 72.57 166.94 75.08 C 173.73 79.10 184.98 76.53 186.69 67.96 C 187.42 61.00 186.78 53.95 187.01 46.95 C 186.88 43.16 187.57 38.93 185.45 35.55 C 183.56 32.84 177.81 34.84 178.29 30.53 C 185.08 30.46 191.88 30.55 198.67 30.47 C 198.70 31.10 198.75 32.35 198.78 32.98 C 195.79 33.51 191.49 33.99 191.27 37.85 C 190.09 47.72 191.16 57.72 190.66 67.63 C 190.13 73.19 185.76 77.72 180.68 79.61 C 173.91 82.07 165.72 81.47 159.77 77.24 C 156.52 74.89 154.32 71.05 154.49 66.98 C 154.48 57.98 154.52 48.97 154.51 39.97 C 154.40 38.23 154.54 36.13 153.09 34.87 C 151.66 33.69 149.70 33.54 147.99 33.00 C 148.01 32.37 148.05 31.11 148.06 30.47 Z" />
<path fill="#2a602a" opacity="1.00" d=" M 556.43 40.57 C 563.07 39.49 570.30 42.20 574.13 47.84 C 580.06 56.50 579.21 70.02 570.76 76.80 C 564.62 81.92 554.99 82.12 548.58 77.40 C 541.18 71.96 539.16 61.38 541.95 52.97 C 544.00 46.57 549.74 41.52 556.43 40.57 M 555.48 43.70 C 550.60 45.70 548.54 51.16 547.91 56.02 C 547.11 62.08 547.51 68.82 551.11 73.97 C 554.50 79.13 562.83 79.48 566.81 74.84 C 569.91 71.37 570.91 66.53 571.03 62.00 C 571.15 56.97 570.65 51.57 567.72 47.31 C 565.10 43.48 559.76 41.96 555.48 43.70 Z" />
<path fill="#2a602a" opacity="1.00" d=" M 198.99 41.29 C 202.80 41.22 206.61 41.23 210.42 41.31 C 217.49 51.01 224.62 60.66 231.77 70.30 C 231.64 63.49 231.98 56.67 231.55 49.87 C 231.36 48.21 231.32 46.26 229.98 45.05 C 228.49 44.14 226.71 43.86 225.07 43.32 C 225.05 42.81 224.99 41.77 224.97 41.25 C 230.24 41.25 235.51 41.24 240.78 41.27 C 240.77 41.77 240.75 42.79 240.74 43.29 C 238.86 44.02 236.02 43.79 235.21 46.05 C 234.57 47.96 234.50 50.00 234.48 51.99 C 234.49 61.49 234.53 70.99 234.47 80.49 C 231.59 80.76 230.33 78.07 228.86 76.15 C 222.29 67.19 215.63 58.28 209.03 49.34 C 208.99 56.23 208.98 63.11 209.00 70.00 C 209.15 72.08 209.03 74.63 210.75 76.13 C 212.28 76.99 214.03 77.32 215.69 77.85 C 215.73 78.32 215.80 79.25 215.84 79.71 C 210.42 79.75 205.01 79.83 199.60 79.65 C 199.65 79.21 199.76 78.31 199.82 77.86 C 202.37 77.19 205.95 76.46 205.85 73.08 C 206.11 65.02 206.11 56.92 205.85 48.86 C 205.76 45.34 202.13 44.31 199.48 43.18 C 199.36 42.71 199.12 41.76 198.99 41.29 Z" />
<path fill="#2a602a" opacity="1.00" d=" M 245.50 41.26 C 251.34 41.24 257.18 41.25 263.02 41.25 C 263.00 41.77 262.97 42.81 262.96 43.32 C 260.99 43.86 257.49 43.71 257.42 46.48 C 256.97 53.66 257.41 60.87 257.23 68.06 C 257.32 70.66 256.90 73.39 257.84 75.88 C 259.11 77.38 261.24 77.29 262.99 77.78 C 262.99 78.27 263.00 79.26 263.01 79.75 C 257.13 79.74 251.25 79.80 245.38 79.70 C 245.44 79.22 245.55 78.25 245.61 77.77 C 247.53 77.28 251.04 77.82 251.15 75.06 C 251.41 66.38 251.14 57.68 251.28 49.00 C 251.09 47.61 251.72 45.62 250.20 44.78 C 248.74 43.97 247.06 43.72 245.48 43.26 C 245.48 42.76 245.50 41.76 245.50 41.26 Z" />
<path fill="#2a602a" opacity="1.00" d=" M 266.48 41.26 C 271.90 41.24 277.32 41.25 282.74 41.26 C 282.75 41.75 282.77 42.75 282.77 43.25 C 281.01 43.54 279.29 44.01 277.66 44.74 C 280.97 53.61 284.30 62.48 287.64 71.34 C 290.44 64.49 293.14 57.59 295.76 50.66 C 296.30 48.90 297.19 47.08 296.82 45.20 C 295.26 43.89 293.12 43.80 291.23 43.27 C 291.24 42.77 291.24 41.76 291.25 41.26 C 296.09 41.24 300.93 41.24 305.78 41.27 C 305.77 41.75 305.74 42.73 305.73 43.21 C 303.54 43.96 301.09 44.84 300.26 47.25 C 295.56 58.13 291.39 69.24 287.04 80.27 C 286.39 80.25 285.09 80.20 284.43 80.17 C 280.31 69.11 276.30 58.00 272.00 47.01 C 271.22 44.61 268.58 44.02 266.51 43.22 C 266.50 42.73 266.49 41.75 266.48 41.26 Z" />
<path fill="#2a602a" opacity="1.00" d=" M 309.17 41.27 C 319.18 41.21 329.19 41.29 339.20 41.22 C 339.26 44.49 339.27 47.75 339.22 51.02 C 335.28 50.78 335.49 45.22 331.89 44.11 C 328.23 43.35 324.46 43.88 320.75 43.77 C 320.75 48.78 320.74 53.80 320.76 58.82 C 323.15 58.67 325.67 58.96 327.98 58.16 C 330.12 57.02 330.53 54.45 331.36 52.39 C 331.89 52.43 332.97 52.52 333.50 52.56 C 333.50 57.60 333.49 62.64 333.51 67.68 C 332.96 67.72 331.86 67.82 331.31 67.86 C 330.60 65.50 330.20 62.51 327.61 61.45 C 325.36 60.91 323.04 61.03 320.75 60.94 C 320.83 65.32 320.56 69.72 320.86 74.10 C 320.91 75.31 321.67 76.76 322.98 76.98 C 326.79 77.68 330.86 77.75 334.59 76.61 C 338.42 74.87 337.76 68.90 341.92 67.79 C 341.95 71.77 341.60 75.73 341.38 79.70 C 330.63 79.79 319.87 79.77 309.12 79.71 C 309.19 79.22 309.33 78.23 309.41 77.74 C 311.31 77.28 314.46 77.55 314.64 74.90 C 314.86 65.63 314.79 56.34 314.67 47.06 C 314.91 44.08 311.43 44.05 309.38 43.38 C 309.33 42.85 309.22 41.80 309.17 41.27 Z" />
<path fill="#2a602a" opacity="1.00" d=" M 348.22 41.27 C 354.47 41.28 360.73 41.18 366.99 41.28 C 370.98 41.40 375.51 42.72 377.50 46.51 C 378.66 49.24 378.56 52.52 377.37 55.24 C 375.80 58.43 372.29 59.77 369.20 61.02 C 372.69 65.49 375.80 70.24 379.39 74.62 C 380.92 76.60 383.41 77.26 385.73 77.84 C 385.74 78.31 385.77 79.26 385.79 79.73 C 382.28 79.76 378.77 79.76 375.26 79.74 C 371.41 73.86 367.44 68.05 363.13 62.50 C 362.22 62.50 360.41 62.50 359.51 62.50 C 359.60 67.01 359.23 71.54 359.71 76.04 C 360.89 77.44 362.81 77.38 364.46 77.74 C 364.58 78.23 364.83 79.21 364.95 79.70 C 359.33 79.78 353.71 79.79 348.09 79.69 C 348.17 79.21 348.32 78.24 348.39 77.76 C 350.67 77.57 353.85 77.01 353.42 73.95 C 353.52 64.25 353.68 54.54 353.27 44.85 C 351.62 44.27 349.94 43.75 348.27 43.26 C 348.26 42.76 348.23 41.76 348.22 41.27 M 359.51 43.71 C 359.49 49.18 359.49 54.64 359.51 60.10 C 362.23 59.92 365.23 60.19 367.61 58.56 C 371.86 55.97 372.73 49.26 369.32 45.66 C 366.70 43.18 362.79 43.85 359.51 43.71 Z" />
<path fill="#2a602a" opacity="1.00" d=" M 394.82 42.76 C 399.42 39.35 405.79 40.00 410.55 42.74 C 411.60 41.84 412.81 41.25 414.18 40.97 C 414.22 45.47 414.51 49.98 414.51 54.48 C 413.93 54.37 412.77 54.14 412.19 54.02 C 410.60 50.00 409.32 44.89 404.66 43.40 C 400.43 41.51 394.70 45.29 396.05 50.11 C 396.93 54.88 402.34 55.94 406.12 57.57 C 410.66 59.27 416.25 62.34 416.04 67.96 C 416.78 73.66 412.38 78.94 406.96 80.16 C 402.42 81.39 397.72 80.16 393.57 78.26 C 392.66 79.45 391.40 80.12 389.92 80.29 C 389.72 75.61 389.67 70.93 389.49 66.25 C 390.06 66.37 391.19 66.61 391.75 66.72 C 393.47 70.56 394.97 75.04 399.05 77.03 C 402.33 78.67 407.07 78.51 409.38 75.33 C 411.74 72.03 410.34 67.07 406.95 65.06 C 402.58 62.66 397.28 61.99 393.50 58.55 C 389.05 54.33 389.74 46.19 394.82 42.76 Z" />
<path fill="#2a602a" opacity="1.00" d=" M 422.67 41.31 C 428.52 41.19 434.37 41.27 440.22 41.25 C 440.23 41.75 440.26 42.75 440.27 43.26 C 438.08 43.82 434.16 43.79 434.53 47.04 C 434.41 55.03 434.57 63.03 434.47 71.02 C 434.56 72.59 434.24 74.29 434.94 75.76 C 436.03 77.47 438.32 77.21 440.05 77.75 C 440.12 78.25 440.25 79.25 440.32 79.75 C 434.47 79.75 428.61 79.75 422.76 79.75 C 422.76 79.11 422.76 78.46 422.77 77.82 C 425.17 77.45 428.83 77.38 428.44 73.97 C 428.49 64.38 428.71 54.76 428.27 45.17 C 426.47 44.44 424.63 43.83 422.78 43.27 C 422.75 42.78 422.70 41.80 422.67 41.31 Z" />
<path fill="#2a602a" opacity="1.00" d=" M 445.01 41.24 C 456.25 41.26 467.50 41.24 478.75 41.25 C 478.75 44.84 478.75 48.43 478.75 52.02 C 478.22 52.00 477.17 51.96 476.65 51.94 C 475.30 49.01 474.08 45.44 470.90 44.03 C 468.90 43.51 466.79 43.80 464.75 43.72 C 464.95 54.10 464.34 64.54 465.05 74.88 C 465.59 78.31 471.34 75.99 471.27 79.72 C 465.04 79.74 458.81 79.85 452.58 79.64 C 452.64 79.19 452.75 78.28 452.81 77.82 C 454.85 77.30 458.38 77.74 458.66 74.92 C 458.90 64.53 458.67 54.13 458.76 43.74 C 456.01 43.83 452.60 43.06 450.68 45.61 C 448.33 47.51 448.56 52.08 445.03 52.27 C 444.98 48.59 445.00 44.92 445.01 41.24 Z" />
<path fill="#2a602a" opacity="1.00" d=" M 480.22 41.27 C 485.73 41.24 491.25 41.24 496.76 41.26 C 496.76 41.78 496.76 42.82 496.75 43.34 C 495.09 43.56 493.44 43.79 491.80 44.05 C 493.76 49.80 497.30 54.83 500.08 60.20 C 503.14 55.16 506.45 50.24 508.91 44.87 C 507.19 44.03 505.34 43.59 503.48 43.26 C 503.48 42.76 503.49 41.76 503.50 41.26 C 508.00 41.24 512.50 41.25 517.01 41.25 C 517.00 41.76 516.98 42.77 516.97 43.28 C 515.05 44.14 512.96 44.97 511.75 46.80 C 508.52 51.04 506.10 55.82 503.36 60.38 C 500.55 64.64 501.01 70.04 501.55 74.86 C 501.99 78.21 507.48 76.08 507.79 79.34 C 501.62 80.28 495.28 79.54 489.04 79.69 C 489.17 79.19 489.42 78.19 489.54 77.69 C 491.40 77.29 493.85 77.75 494.98 75.83 C 495.48 72.23 495.36 68.55 495.12 64.93 C 493.90 60.83 491.43 57.25 489.54 53.44 C 487.26 49.43 485.45 44.12 480.27 43.22 C 480.26 42.73 480.23 41.76 480.22 41.27 Z" />
<path fill="#2a602a" opacity="1.00" d=" M 581.49 41.26 C 591.57 41.23 601.66 41.25 611.75 41.25 C 611.75 44.52 611.75 47.78 611.75 51.04 C 611.22 51.01 610.17 50.94 609.64 50.90 C 608.29 48.26 607.01 44.90 603.92 43.92 C 600.29 43.53 596.64 43.81 593.00 43.76 C 593.00 48.77 592.99 53.77 593.01 58.77 C 595.62 58.59 598.52 59.30 600.93 58.01 C 603.60 56.84 602.53 52.22 605.94 52.21 C 606.04 57.56 606.01 62.91 605.97 68.27 C 602.65 68.29 603.78 63.95 601.55 62.50 C 599.10 60.64 595.85 61.38 593.01 61.22 C 593.10 65.80 592.75 70.40 593.17 74.97 C 593.57 77.39 596.50 77.21 598.34 77.78 C 598.42 78.26 598.59 79.20 598.68 79.67 C 592.91 79.81 587.15 79.77 581.38 79.70 C 581.44 79.23 581.55 78.27 581.61 77.80 C 583.47 77.30 586.82 77.70 586.88 75.01 C 587.20 66.68 586.87 58.33 587.03 49.99 C 586.84 48.16 587.52 45.66 585.63 44.53 C 584.28 44.01 582.87 43.68 581.50 43.30 C 581.49 42.79 581.49 41.77 581.49 41.26 Z" />
<path fill="#2a602a" opacity="1.00" d=" M 154.30 92.28 C 160.11 86.84 169.25 87.38 175.68 91.41 C 176.72 89.85 178.39 89.34 180.19 89.28 C 180.63 94.85 180.49 100.43 180.49 106.01 C 179.76 106.00 178.29 105.99 177.55 105.98 C 175.99 100.27 173.63 93.02 166.95 91.79 C 162.30 90.36 156.50 93.91 156.73 99.03 C 156.71 102.73 159.22 105.99 162.60 107.32 C 168.36 110.19 175.24 111.38 179.82 116.23 C 184.88 122.25 183.12 132.42 176.56 136.66 C 169.79 141.50 160.54 140.25 153.52 136.61 C 153.14 137.22 152.37 138.43 151.99 139.04 C 151.24 139.03 149.76 139.00 149.01 138.99 C 149.11 133.19 148.62 127.40 148.75 121.61 C 149.41 121.67 150.74 121.79 151.40 121.85 C 153.23 125.80 154.39 130.30 157.86 133.22 C 161.72 136.93 168.23 137.78 172.75 134.81 C 177.32 130.97 176.07 122.87 171.10 119.90 C 165.64 116.87 159.01 116.02 154.19 111.85 C 148.47 107.00 148.58 97.09 154.30 92.28 Z" />
<path fill="#2a602a" opacity="1.00" d=" M 201.85 101.87 C 202.10 100.22 203.49 99.60 205.01 99.49 C 209.51 110.86 213.66 122.38 218.36 133.67 C 219.25 136.39 223.47 135.66 223.82 138.68 C 218.18 138.79 212.54 138.81 206.90 138.66 C 207.28 135.97 210.56 136.32 212.44 135.27 C 211.22 132.03 210.01 128.78 208.83 125.52 C 204.45 125.49 200.06 125.50 195.68 125.49 C 194.41 128.63 193.37 131.86 192.73 135.19 C 194.57 135.87 196.46 136.43 198.37 136.86 C 198.44 137.32 198.58 138.23 198.65 138.68 C 193.65 138.79 188.65 138.78 183.65 138.69 C 183.69 138.23 183.78 137.31 183.82 136.85 C 186.19 136.16 188.86 135.28 189.74 132.68 C 194.03 122.52 197.82 112.14 201.85 101.87 M 196.69 122.99 C 200.40 123.00 204.11 123.00 207.82 123.00 C 205.89 118.28 204.11 113.51 202.21 108.78 C 200.25 113.47 198.50 118.25 196.69 122.99 Z" />
<path fill="#2a602a" opacity="1.00" d=" M 228.69 102.65 C 233.14 98.29 240.38 98.75 245.43 101.79 C 246.38 100.73 247.64 100.17 249.02 99.90 C 249.39 104.42 249.25 108.96 249.21 113.50 C 248.67 113.38 247.57 113.13 247.03 113.00 C 245.44 109.06 244.25 103.98 239.68 102.45 C 235.80 100.74 230.46 103.50 230.70 108.02 C 230.82 111.95 234.40 114.22 237.74 115.33 C 241.82 116.94 246.35 118.29 249.21 121.83 C 252.73 126.80 250.89 134.54 245.60 137.52 C 240.43 140.83 233.74 139.89 228.51 137.21 C 227.56 138.37 226.33 139.10 224.83 139.29 C 224.60 134.58 224.40 129.88 224.52 125.17 C 225.05 125.33 226.12 125.64 226.65 125.79 C 228.10 128.78 229.02 132.18 231.62 134.44 C 234.69 137.24 239.98 138.19 243.32 135.35 C 246.65 132.36 245.70 126.31 241.90 124.14 C 237.77 121.76 232.77 121.12 228.99 118.10 C 224.33 114.44 224.21 106.50 228.69 102.65 Z" />
<path fill="#2a602a" opacity="1.00" d=" M 255.49 100.26 C 260.83 100.24 266.17 100.24 271.51 100.26 C 271.51 100.76 271.51 101.76 271.52 102.26 C 269.82 102.88 266.97 102.80 266.63 105.05 C 266.27 109.68 266.59 114.34 266.53 118.98 C 271.60 114.39 277.61 109.95 279.96 103.26 C 278.64 102.94 277.32 102.64 276.00 102.34 C 276.00 101.81 276.00 100.77 276.00 100.25 C 280.83 100.25 285.66 100.24 290.49 100.26 C 290.50 100.75 290.52 101.74 290.53 102.23 C 288.26 102.87 285.66 103.14 284.01 105.02 C 280.21 109.08 276.73 113.44 272.63 117.22 C 276.62 121.91 280.54 126.65 284.34 131.50 C 286.12 133.54 288.08 136.07 291.02 136.24 C 293.50 136.35 295.18 134.20 296.02 132.13 C 300.53 121.43 304.29 110.41 308.86 99.75 C 309.39 99.76 310.45 99.78 310.98 99.79 C 315.65 110.73 319.51 122.02 324.05 133.02 C 324.79 135.44 327.29 136.21 329.45 136.88 C 329.48 137.34 329.55 138.25 329.58 138.71 C 324.07 138.77 318.55 138.79 313.04 138.69 C 313.16 138.21 313.41 137.26 313.53 136.78 C 315.21 136.46 316.85 135.97 318.45 135.35 C 317.24 132.07 316.03 128.79 314.83 125.52 C 310.45 125.49 306.06 125.50 301.68 125.49 C 300.40 128.63 299.36 131.87 298.74 135.20 C 300.59 135.84 302.46 136.40 304.37 136.87 C 304.44 137.32 304.59 138.23 304.67 138.68 C 297.04 138.83 289.41 138.82 281.79 138.78 C 277.23 132.01 272.12 125.62 266.53 119.67 C 266.59 124.41 266.28 129.16 266.62 133.89 C 267.03 136.16 269.70 136.24 271.45 136.83 C 271.48 137.30 271.53 138.25 271.56 138.72 C 266.16 138.76 260.76 138.79 255.36 138.69 C 255.43 138.22 255.57 137.26 255.64 136.78 C 257.42 136.35 260.14 136.41 260.38 134.01 C 260.72 127.67 260.38 121.31 260.50 114.97 C 260.41 111.41 260.85 107.78 260.07 104.28 C 258.76 103.18 257.04 102.84 255.50 102.24 C 255.49 101.74 255.49 100.76 255.49 100.26 M 308.21 108.63 C 306.34 113.41 304.49 118.19 302.69 122.99 C 306.39 123.00 310.10 123.00 313.81 123.00 C 311.91 118.22 310.07 113.42 308.21 108.63 Z" />
<path fill="#2a602a" opacity="1.00" d=" M 328.25 100.25 C 339.50 100.24 350.74 100.26 361.99 100.24 C 362.00 103.92 362.02 107.59 361.97 111.26 C 358.67 111.21 358.76 107.12 356.82 105.22 C 354.96 102.09 351.07 102.74 348.00 102.72 C 348.09 112.83 347.82 122.94 348.12 133.04 C 348.13 136.23 351.91 136.20 354.17 136.86 C 354.23 137.31 354.33 138.22 354.38 138.67 C 348.24 138.83 342.10 138.72 335.96 138.75 C 335.99 138.25 336.05 137.24 336.08 136.74 C 338.06 136.28 341.54 136.71 341.89 134.02 C 342.17 123.59 341.91 113.15 342.00 102.71 C 340.05 102.75 338.08 102.64 336.16 102.94 C 332.99 104.39 331.70 107.91 330.37 110.87 C 329.84 110.92 328.78 111.01 328.25 111.05 C 328.25 107.45 328.25 103.85 328.25 100.25 Z" />
<path fill="#2a602a" opacity="1.00" d=" M 371.84 102.76 C 377.48 98.55 385.44 98.54 391.57 101.73 C 392.61 100.82 393.82 100.24 395.19 99.97 C 395.19 104.81 395.54 109.64 395.51 114.48 C 394.95 114.37 393.82 114.15 393.26 114.04 C 391.67 110.39 390.86 105.97 387.41 103.52 C 383.05 100.30 376.52 102.48 373.85 106.88 C 370.48 112.35 370.09 119.27 371.39 125.43 C 372.77 131.48 378.21 137.40 384.89 136.42 C 389.69 135.95 393.03 132.08 394.83 127.92 C 395.39 128.20 396.51 128.76 397.07 129.04 C 395.55 132.31 393.63 135.60 390.46 137.52 C 383.43 141.67 373.49 140.05 368.41 133.57 C 361.44 124.61 362.54 109.73 371.84 102.76 Z" />
<path fill="#2a602a" opacity="1.00" d=" M 399.73 100.27 C 405.16 100.23 410.59 100.25 416.02 100.25 C 416.00 100.77 415.97 101.80 415.95 102.31 C 414.26 102.88 411.67 102.74 411.17 104.92 C 410.76 109.11 411.06 113.33 411.06 117.54 C 416.95 117.47 422.84 117.51 428.74 117.50 C 428.65 113.35 429.04 109.16 428.52 105.03 C 427.99 102.96 425.34 103.04 423.73 102.31 C 423.75 101.61 423.79 100.91 423.83 100.22 C 429.15 100.28 434.47 100.22 439.80 100.27 C 439.78 100.78 439.73 101.79 439.71 102.30 C 437.65 102.73 434.42 103.20 434.81 106.07 C 434.77 115.33 434.57 124.63 434.91 133.88 C 435.10 136.99 440.32 135.31 440.02 138.71 C 434.72 138.69 429.40 138.95 424.11 138.63 C 423.34 138.26 423.94 137.35 423.86 136.74 C 425.35 136.40 427.03 136.38 428.31 135.42 C 429.28 130.36 428.52 125.13 428.76 120.01 C 422.84 119.99 416.92 120.00 411.00 120.00 C 411.11 124.64 410.75 129.30 411.16 133.94 C 411.48 136.23 414.27 136.21 415.99 136.83 C 415.99 137.31 416.00 138.27 416.00 138.75 C 410.52 138.72 405.04 138.86 399.56 138.64 C 399.63 138.19 399.78 137.29 399.85 136.84 C 401.68 136.28 404.91 136.59 404.87 133.92 C 405.11 124.59 405.06 115.22 404.90 105.88 C 405.00 103.08 401.68 102.98 399.75 102.27 C 399.75 101.77 399.74 100.77 399.73 100.27 Z" />
<path fill="#2a602a" opacity="1.00" d=" M 444.46 100.28 C 454.38 100.21 464.31 100.27 474.23 100.24 C 474.24 103.45 474.25 106.66 474.27 109.86 C 470.51 109.85 470.52 104.08 466.94 103.05 C 463.33 102.42 459.64 102.85 456.00 102.76 C 456.00 107.78 455.98 112.80 456.02 117.82 C 458.38 117.67 460.87 117.95 463.15 117.14 C 465.98 116.01 464.98 111.28 468.44 111.18 C 468.55 116.36 468.47 121.54 468.51 126.73 C 467.99 126.73 466.96 126.75 466.44 126.76 C 465.69 124.46 465.34 121.35 462.67 120.46 C 460.49 119.89 458.22 120.03 456.00 119.94 C 456.10 124.59 455.77 129.25 456.13 133.89 C 456.83 136.49 459.95 136.26 462.08 136.46 C 464.82 136.43 467.74 136.50 470.31 135.39 C 472.82 133.21 473.49 129.68 475.64 127.25 L 477.31 127.16 C 477.00 131.02 476.76 134.89 476.47 138.76 C 465.58 138.51 454.64 139.23 443.79 138.38 C 444.85 136.17 447.54 136.54 449.34 135.37 C 450.14 133.69 449.93 131.75 450.02 129.94 C 449.96 122.59 450.04 115.25 450.00 107.90 C 449.79 106.44 450.19 104.28 448.51 103.57 C 447.22 103.02 445.86 102.69 444.52 102.30 C 444.51 101.79 444.47 100.78 444.46 100.28 Z" />
<path fill="#2a602a" opacity="1.00" d=" M 478.21 100.27 C 483.58 100.25 488.96 100.19 494.34 100.31 C 494.31 100.81 494.26 101.79 494.23 102.29 C 492.61 102.92 488.73 102.24 489.56 105.00 C 491.56 113.01 494.10 120.88 496.24 128.86 C 499.49 119.50 502.59 110.08 505.74 100.68 C 506.47 100.74 507.93 100.85 508.66 100.91 C 511.70 110.56 515.09 120.10 518.15 129.74 C 520.06 121.74 522.93 113.96 524.47 105.87 C 524.94 102.87 521.22 102.77 519.22 102.24 C 519.23 101.75 519.24 100.75 519.25 100.26 C 524.00 100.24 528.76 100.24 533.51 100.26 C 533.51 100.74 533.50 101.71 533.50 102.19 C 531.17 103.04 528.48 104.06 527.87 106.79 C 524.36 117.54 521.28 128.43 517.84 139.20 C 517.15 139.22 515.77 139.26 515.07 139.28 C 511.82 129.60 508.66 119.89 505.53 110.16 C 502.22 119.86 498.88 129.55 495.63 139.26 C 494.95 139.25 493.59 139.24 492.92 139.23 C 489.75 128.28 486.82 117.26 483.57 106.33 C 483.02 103.78 480.49 102.89 478.29 102.24 C 478.27 101.75 478.23 100.76 478.21 100.27 Z" />
<path fill="#2a602a" opacity="1.00" d=" M 550.31 99.92 C 550.93 99.85 552.17 99.72 552.79 99.66 C 557.21 110.83 561.33 122.12 565.88 133.24 C 567.60 137.59 574.52 137.63 576.91 133.98 C 577.95 129.76 577.36 125.37 577.50 121.07 C 577.34 116.39 577.90 111.65 577.15 107.01 C 576.46 103.88 573.08 103.08 570.48 102.20 C 570.48 101.71 570.49 100.75 570.50 100.26 C 574.24 100.24 577.99 100.24 581.75 100.26 C 588.86 109.80 595.87 119.43 602.97 128.99 C 602.87 121.63 603.31 114.24 602.77 106.90 C 602.66 103.45 598.90 102.94 596.28 102.30 C 596.26 101.79 596.22 100.78 596.20 100.28 C 601.57 100.24 606.94 100.21 612.32 100.30 C 612.30 100.79 612.26 101.76 612.24 102.24 C 610.69 102.69 609.11 103.03 607.65 103.72 C 605.84 105.22 606.16 107.88 605.99 109.99 C 605.99 119.74 606.01 129.51 605.99 139.27 C 605.32 139.25 603.98 139.22 603.31 139.21 C 595.73 128.96 588.21 118.67 580.52 108.50 C 580.49 115.34 580.49 122.19 580.49 129.04 C 580.55 131.06 580.55 133.37 582.03 134.94 C 583.92 136.21 586.51 136.26 588.04 138.14 C 586.09 138.74 584.05 138.83 582.03 138.79 C 573.00 138.68 563.97 138.78 554.94 138.75 C 554.99 138.26 555.08 137.29 555.13 136.80 C 556.60 136.19 559.26 136.67 559.83 134.87 C 559.05 131.60 557.62 128.53 556.39 125.42 C 552.02 125.54 547.66 125.49 543.29 125.52 C 542.35 128.37 541.24 131.18 540.67 134.13 C 541.11 136.63 544.31 136.16 546.18 136.85 C 546.23 137.31 546.32 138.23 546.36 138.69 C 541.38 138.79 536.41 138.76 531.43 138.72 C 531.46 138.26 531.52 137.34 531.56 136.89 C 533.97 136.19 536.65 135.16 537.53 132.55 C 542.02 121.77 546.12 110.82 550.31 99.92 M 544.43 122.99 C 548.12 123.00 551.81 123.00 555.51 122.99 C 553.67 118.22 551.80 113.47 549.92 108.72 C 548.03 113.45 546.22 118.22 544.43 122.99 Z" />
<path fill="#2a602a" opacity="1.00" d=" M 286.65 154.58 C 299.35 147.09 314.66 146.42 329.03 146.51 C 341.72 147.02 355.47 148.16 365.97 156.07 C 373.39 161.64 376.51 171.12 376.69 180.11 C 376.84 194.07 376.70 208.03 376.76 221.99 C 363.42 222.01 350.09 222.00 336.75 222.00 C 336.74 208.98 336.75 195.95 336.76 182.93 C 336.93 180.41 335.96 177.60 333.45 176.58 C 329.53 175.07 325.08 175.17 321.03 176.07 C 318.30 176.65 316.23 179.16 316.33 181.98 C 316.11 190.65 316.33 199.32 316.24 208.00 C 316.29 212.46 315.88 217.14 317.72 221.34 C 319.79 225.93 323.50 229.49 327.10 232.91 C 338.03 242.99 349.87 252.08 360.31 262.70 C 366.68 269.34 372.83 276.65 375.67 285.57 C 378.02 292.44 377.99 299.81 378.01 306.99 C 377.95 315.36 378.09 323.73 377.95 332.10 C 377.87 337.11 377.05 342.11 375.20 346.78 C 381.86 346.72 388.51 346.75 395.17 346.77 C 393.66 342.69 392.50 338.43 392.50 334.06 C 392.49 318.04 392.50 302.02 392.50 286.00 C 406.33 286.00 420.17 286.00 434.00 286.00 C 434.03 301.37 433.95 316.75 434.03 332.12 C 433.91 334.42 435.17 336.74 437.32 337.68 C 441.10 339.48 445.56 339.31 449.55 338.38 C 452.49 337.77 454.94 335.14 454.73 332.04 C 454.81 323.04 454.70 314.04 454.77 305.03 C 454.75 301.71 454.95 298.30 453.96 295.08 C 452.73 290.84 449.85 287.36 446.86 284.22 C 433.36 270.31 416.74 259.68 404.28 244.73 C 398.80 238.21 394.39 230.51 393.02 222.01 C 392.30 218.03 392.50 213.97 392.50 209.95 C 392.50 200.29 392.51 190.63 392.48 180.97 C 392.44 172.98 395.09 164.69 400.98 159.09 C 406.68 153.24 414.63 150.36 422.44 148.60 C 434.48 146.17 446.90 146.03 459.10 147.13 C 469.36 148.24 480.34 150.53 488.06 157.90 C 494.36 163.76 496.59 172.64 496.74 180.97 C 496.78 194.64 496.73 208.32 496.76 221.99 C 483.42 222.01 470.09 222.00 456.75 222.00 C 456.72 208.66 456.80 195.33 456.72 181.99 C 456.88 179.13 454.74 176.59 451.97 176.04 C 447.86 175.20 443.35 175.01 439.43 176.72 C 436.65 177.91 436.15 181.26 436.24 183.94 C 436.33 194.42 436.08 204.91 436.37 215.39 C 436.56 221.96 441.09 227.17 445.59 231.48 C 458.44 243.63 472.90 254.10 484.65 267.40 C 490.77 274.30 495.85 282.53 497.22 291.79 C 498.48 300.45 497.85 309.23 498.00 317.95 C 497.83 325.61 498.56 333.39 497.01 340.96 C 496.03 345.88 493.58 350.37 490.49 354.28 C 505.16 356.17 519.73 358.69 534.25 361.45 C 534.24 323.55 534.26 285.65 534.25 247.74 C 529.84 248.27 525.44 248.84 521.03 249.33 C 519.22 275.88 517.89 302.47 515.98 329.02 C 514.56 302.46 513.62 275.87 512.24 249.30 C 502.53 247.58 492.76 246.20 483.07 244.32 C 492.83 242.88 502.66 241.92 512.43 240.57 C 513.58 219.63 514.92 198.69 516.26 177.75 C 511.67 177.75 507.09 177.75 502.51 177.76 C 502.49 168.09 502.50 158.42 502.51 148.76 C 538.08 148.75 573.66 148.75 609.24 148.75 C 609.23 158.43 609.30 168.10 609.20 177.78 C 598.72 177.72 588.24 177.76 577.76 177.75 C 577.75 242.21 577.75 306.66 577.76 371.12 C 619.69 381.57 660.73 395.51 700.45 412.53 C 719.39 420.81 738.23 429.40 756.40 439.28 C 716.34 423.74 675.55 410.00 633.89 399.41 C 437.33 348.57 225.56 357.90 34.46 426.64 C 23.12 430.47 12.14 435.32 0.77 439.03 C 58.61 408.75 120.14 385.61 183.52 369.98 C 172.70 366.63 161.91 361.09 155.30 351.56 C 150.87 345.30 148.66 337.63 148.74 329.98 C 148.76 269.57 148.74 209.16 148.76 148.75 C 163.25 148.75 177.75 148.75 192.24 148.75 C 192.33 167.83 192.07 186.91 192.43 205.99 C 192.01 224.64 192.61 243.29 192.25 261.94 C 192.10 285.28 192.40 308.63 192.19 331.97 C 192.34 333.55 192.01 335.47 193.17 336.76 C 197.93 339.54 204.39 340.12 209.11 336.96 C 211.18 335.79 210.60 333.09 210.89 331.12 C 210.91 298.74 210.96 266.35 210.59 233.97 C 210.77 205.57 210.74 177.16 210.76 148.76 C 225.25 148.75 239.75 148.75 254.24 148.75 C 254.26 208.84 254.25 268.92 254.25 329.00 C 254.32 338.38 255.05 348.40 249.87 356.73 C 259.51 355.16 269.18 353.74 278.89 352.70 C 274.71 347.42 272.56 340.72 272.50 334.01 C 272.50 318.01 272.50 302.00 272.50 286.00 C 286.33 286.00 300.17 286.00 314.00 286.00 C 314.00 301.03 314.01 316.05 313.99 331.08 C 313.93 333.18 314.28 335.55 316.09 336.90 C 319.78 339.51 324.69 339.34 328.95 338.53 C 332.04 337.97 334.97 335.40 334.72 332.03 C 334.78 321.36 334.77 310.68 334.72 300.01 C 334.64 294.32 331.59 289.21 327.76 285.20 C 315.11 271.82 299.48 261.61 287.08 247.97 C 279.20 239.55 272.75 228.90 272.51 217.06 C 272.48 204.70 272.50 192.34 272.50 179.97 C 272.47 169.80 277.76 159.72 286.65 154.58 M 518.20 177.75 C 519.16 198.74 520.06 219.72 521.07 240.70 C 525.47 241.40 529.86 242.15 534.26 242.88 C 534.24 221.17 534.26 199.46 534.25 177.76 C 528.90 177.75 523.55 177.75 518.20 177.75 Z" />
<path fill="#2a602a" opacity="1.00" d=" M 368.42 373.47 C 372.09 370.31 377.52 370.27 381.99 371.45 C 385.31 372.35 387.37 375.64 387.68 378.93 C 388.30 384.23 387.89 389.59 388.00 394.92 C 385.83 394.80 383.66 394.74 381.49 394.70 C 381.29 389.84 382.03 384.87 381.00 380.08 C 380.10 376.44 373.70 376.55 372.81 380.16 C 372.19 383.40 372.58 386.73 372.47 390.02 C 372.59 392.41 372.13 395.17 373.77 397.18 C 377.27 401.68 382.02 405.01 385.59 409.46 C 388.89 413.55 388.04 419.16 388.27 424.06 C 388.10 428.64 388.84 433.89 385.84 437.77 C 382.50 441.46 376.88 441.51 372.37 440.51 C 368.47 439.61 365.94 435.83 365.72 431.97 C 365.22 426.33 365.62 420.65 365.50 415.00 C 367.75 415.00 369.99 415.00 372.25 415.00 C 372.44 420.48 371.85 426.02 372.54 431.47 C 373.36 435.38 379.78 435.70 380.94 431.88 C 381.60 427.94 381.14 423.91 381.27 419.94 C 381.85 411.97 373.33 408.36 369.10 402.89 C 364.52 398.90 365.60 392.45 365.48 387.05 C 365.54 382.45 364.97 377.09 368.42 373.47 Z" />
<path fill="#2a602a" opacity="1.00" d=" M 342.07 372.08 C 348.46 372.07 354.85 371.64 361.25 371.75 C 361.24 373.90 361.24 376.05 361.25 378.20 C 357.08 378.52 352.91 378.54 348.73 378.50 C 348.84 386.42 349.13 394.33 349.00 402.25 C 351.93 402.25 354.87 402.25 357.80 402.20 C 357.76 404.38 357.75 406.56 357.73 408.75 C 354.82 408.75 351.91 408.75 349.00 408.75 C 349.00 417.09 348.99 425.42 349.01 433.76 C 353.25 433.75 357.50 433.75 361.75 433.75 C 361.74 435.91 361.74 438.08 361.75 440.25 C 355.16 440.25 348.58 440.25 342.00 440.25 C 342.04 417.52 341.91 394.80 342.07 372.08 Z" />
<path fill="#2a602a" opacity="1.00" d=" M 393.75 371.75 C 396.00 371.75 398.24 371.75 400.50 371.75 C 400.50 394.58 400.50 417.42 400.49 440.25 C 398.14 440.24 395.80 440.24 393.46 440.25 C 394.09 417.42 393.59 394.58 393.75 371.75 Z" />
<path fill="#2a602a" opacity="1.00" d=" M 406.48 382.94 C 406.18 378.50 408.30 373.30 412.94 372.09 C 418.40 370.45 426.17 371.70 428.11 377.88 C 429.73 383.60 428.74 389.65 428.99 395.51 C 426.90 395.50 424.83 395.49 422.75 395.49 C 422.59 390.78 423.12 386.03 422.49 381.36 C 421.60 376.61 412.90 377.03 413.34 382.30 C 413.20 398.43 413.16 414.59 413.36 430.73 C 413.69 435.37 421.10 435.97 422.35 431.59 C 423.26 426.07 422.51 420.40 422.76 414.83 C 420.91 414.70 419.07 414.57 417.24 414.44 C 417.24 412.46 417.25 410.48 417.26 408.50 C 421.32 408.49 425.40 408.43 429.46 408.63 C 428.88 419.55 429.58 430.51 429.08 441.43 C 427.96 440.21 426.93 438.90 425.95 437.57 C 422.29 441.54 416.01 441.98 411.29 439.81 C 407.27 437.94 406.31 433.08 406.26 429.08 C 406.11 413.69 406.74 398.32 406.48 382.94 Z" />
<path fill="#2a602a" opacity="1.00" d=" M 313.49 373.49 C 319.16 373.41 325.05 371.90 330.59 373.66 C 335.13 375.35 336.58 380.60 336.27 385.01 C 336.00 399.68 336.64 414.35 336.46 429.02 C 336.60 433.48 334.36 438.44 329.75 439.69 C 324.51 440.84 319.08 440.01 313.76 440.24 C 313.91 417.99 313.34 395.75 313.49 373.49 M 320.50 379.47 C 320.49 397.67 320.50 415.87 320.50 434.07 C 322.82 433.90 325.30 434.30 327.49 433.34 C 329.27 432.25 329.56 429.97 329.51 428.07 C 329.49 414.06 329.49 400.05 329.51 386.04 C 329.47 383.76 329.39 380.61 326.86 379.66 C 324.75 379.37 322.62 379.49 320.50 379.47 Z" />
<path fill="#2a602a" opacity="1.00" d=" M 435.00 372.95 C 437.72 373.09 440.43 373.25 443.15 373.47 C 446.59 389.45 450.09 405.41 453.68 421.36 C 453.41 405.60 453.98 389.83 453.74 374.07 C 455.74 374.21 457.75 374.37 459.75 374.54 C 459.79 396.44 459.76 418.35 459.49 440.24 C 457.23 440.24 454.98 440.25 452.72 440.26 C 448.68 424.81 445.16 409.23 440.92 393.84 C 440.53 409.30 440.86 424.77 440.75 440.24 C 438.75 440.24 436.75 440.24 434.76 440.25 C 434.79 417.81 434.60 395.37 435.00 372.95 Z" />
<path fill="#2a602a" opacity="1.00" d=" M 280.17 375.92 C 286.59 375.31 293.03 374.79 299.47 374.40 C 299.60 376.49 299.73 378.58 299.84 380.68 C 295.65 381.06 291.45 381.35 287.25 381.56 C 287.25 389.05 287.25 396.54 287.24 404.03 C 290.16 403.99 293.08 403.85 295.99 403.71 C 295.99 405.80 296.00 407.88 296.01 409.98 C 293.17 410.16 290.34 410.26 287.51 410.29 C 287.49 418.28 287.49 426.28 287.51 434.28 C 291.75 434.29 296.00 434.03 300.25 433.96 C 300.25 436.05 300.24 438.14 300.25 440.24 C 293.75 440.25 287.25 440.25 280.75 440.24 C 280.54 423.50 280.43 406.76 280.50 390.02 C 280.53 385.32 280.57 380.61 280.17 375.92 Z" />
<path fill="#2a602a" opacity="1.00" d=" M 472.27 375.43 C 479.94 376.13 487.61 376.88 495.27 377.63 C 495.16 379.67 495.04 381.71 494.95 383.76 C 492.30 383.49 489.65 383.24 487.00 382.99 C 487.10 402.07 486.91 421.16 486.74 440.24 C 484.51 440.25 482.28 440.26 480.05 440.28 C 479.92 421.02 480.43 401.76 480.28 382.50 C 477.61 382.21 474.94 381.99 472.28 381.79 C 472.26 379.67 472.26 377.55 472.27 375.43 Z" />
<path fill="#2a602a" opacity="1.00" d=" M 253.19 385.87 C 254.07 378.19 263.30 375.37 269.84 377.10 C 273.21 378.03 274.96 381.63 274.95 384.93 C 275.04 389.30 275.09 393.68 275.30 398.06 C 273.20 398.20 271.12 398.34 269.03 398.50 C 268.63 394.05 268.95 389.56 268.59 385.11 C 267.39 380.89 259.97 382.73 260.07 386.87 C 259.91 401.87 259.92 416.89 260.38 431.88 C 260.88 436.11 268.45 436.26 268.87 431.95 C 269.22 426.97 268.90 421.98 269.00 416.99 C 271.08 416.86 273.16 416.76 275.24 416.68 C 275.15 422.12 275.45 427.56 275.13 432.99 C 274.93 436.51 272.43 439.86 268.90 440.61 C 264.73 441.40 259.88 441.37 256.36 438.67 C 253.54 436.32 253.11 432.40 253.22 428.97 C 253.48 414.60 252.53 400.22 253.19 385.87 Z" />
<path fill="#2a602a" opacity="1.00" d=" M 499.00 378.02 C 505.40 378.77 511.81 379.52 518.21 380.28 C 518.23 382.24 518.24 384.20 518.26 386.16 C 514.19 385.74 510.12 385.27 506.04 384.87 C 505.52 391.93 505.83 399.01 505.75 406.07 C 508.67 406.26 511.59 406.46 514.51 406.67 C 514.50 408.62 514.49 410.58 514.48 412.54 C 511.57 412.34 508.66 412.17 505.75 411.97 C 505.63 419.47 506.03 426.98 505.47 434.47 C 509.83 434.44 514.19 434.70 518.56 434.81 C 518.48 436.70 518.40 438.59 518.30 440.49 C 511.78 440.66 505.27 440.28 498.75 440.22 C 498.61 419.48 499.19 398.76 499.00 378.02 Z" />
<path fill="#2a602a" opacity="1.00" d=" M 232.05 381.20 C 234.69 380.87 237.33 380.52 239.98 380.20 C 243.23 400.28 246.56 420.36 249.63 440.48 C 247.35 440.49 245.07 440.49 242.80 440.50 C 242.21 437.09 241.66 433.68 241.18 430.27 C 237.67 430.46 234.16 430.52 230.66 430.56 C 230.19 433.88 229.68 437.19 229.14 440.51 C 226.90 440.50 224.66 440.49 222.42 440.48 C 225.76 420.74 228.82 400.96 232.05 381.20 M 235.70 395.70 C 234.73 405.62 232.92 415.44 231.51 425.30 C 234.44 425.21 237.36 425.05 240.30 424.95 C 238.71 415.21 237.40 405.42 235.70 395.70 Z" />
<path fill="#2a602a" opacity="1.00" d=" M 531.05 381.98 C 533.68 382.37 536.32 382.75 538.97 383.09 C 541.98 402.23 544.96 421.37 548.07 440.50 C 545.76 440.49 543.46 440.49 541.16 440.49 C 540.67 437.27 540.16 434.06 539.67 430.85 C 536.15 430.71 532.64 430.72 529.13 430.78 C 528.67 434.04 528.13 437.28 527.57 440.52 C 525.33 440.50 523.10 440.49 520.88 440.49 C 524.14 420.96 527.59 401.47 531.05 381.98 M 530.06 425.50 C 532.98 425.51 535.91 425.64 538.84 425.77 C 537.49 416.36 536.06 406.96 534.74 397.54 C 533.12 406.85 531.69 416.19 530.06 425.50 Z" />
<path fill="#2a602a" opacity="1.00" d=" M 199.50 386.05 C 205.02 385.29 210.51 383.76 216.12 384.07 C 219.74 384.15 222.84 387.22 222.89 390.86 C 223.08 395.92 223.71 401.06 222.79 406.09 C 222.22 409.25 219.68 411.82 216.68 412.83 C 213.41 413.93 209.90 413.91 206.50 414.23 C 206.49 422.99 206.51 431.74 206.49 440.50 C 204.25 440.49 202.00 440.49 199.76 440.50 C 199.75 422.34 199.33 404.20 199.50 386.05 M 206.21 390.37 C 206.39 396.57 206.62 402.78 206.48 408.98 C 209.34 408.54 212.69 408.99 215.08 407.05 C 217.38 404.27 216.22 400.35 216.34 397.06 C 216.05 394.73 216.93 391.72 214.74 390.09 C 211.95 389.23 209.02 390.12 206.21 390.37 Z" />
<path fill="#2a602a" opacity="1.00" d=" M 552.28 385.15 C 555.31 385.61 558.33 386.09 561.36 386.61 C 563.68 400.46 566.21 414.26 568.60 428.09 C 571.14 415.12 573.59 402.13 576.13 389.16 C 579.25 389.72 582.37 390.30 585.50 390.89 C 585.50 407.43 585.50 423.96 585.50 440.50 C 583.32 440.49 581.16 440.49 579.00 440.50 C 579.00 428.57 578.90 416.65 579.26 404.73 C 576.54 416.61 574.20 428.57 571.69 440.49 C 569.66 440.49 567.64 440.50 565.62 440.51 C 563.13 427.62 560.68 414.71 558.31 401.79 C 558.73 414.69 558.39 427.60 558.49 440.50 C 556.32 440.49 554.16 440.49 552.00 440.50 C 552.01 422.05 552.39 403.60 552.28 385.15 Z" />
<path fill="#2a602a" opacity="1.00" d=" M 171.99 396.97 C 172.48 391.58 178.19 389.00 182.91 388.28 C 186.52 387.74 191.82 387.18 193.42 391.42 C 194.54 395.90 193.81 400.60 193.99 405.17 C 191.83 405.39 189.67 405.62 187.51 405.85 C 187.39 402.16 187.80 398.44 187.27 394.78 C 185.90 392.23 182.42 393.22 180.39 394.32 C 178.36 395.46 178.86 398.05 178.71 399.98 C 178.81 402.53 178.39 405.22 179.26 407.66 C 183.45 411.94 189.84 413.66 193.38 418.61 C 195.04 423.19 194.00 428.25 194.23 433.03 C 194.58 437.56 190.32 440.79 186.11 440.89 C 181.40 441.29 175.04 441.29 172.55 436.43 C 171.08 431.81 171.96 426.83 171.80 422.07 C 174.03 421.95 176.26 421.82 178.50 421.71 C 178.56 425.42 178.34 429.14 178.59 432.85 C 178.99 437.68 188.14 437.06 187.48 432.02 C 187.40 428.48 188.08 424.71 186.81 421.34 C 182.82 416.78 176.47 415.11 172.50 410.52 C 171.30 406.15 171.65 401.45 171.99 396.97 Z" />
<path fill="#2a602a" opacity="1.00" d=" M 121.23 402.14 C 123.99 401.42 126.75 400.69 129.51 399.98 C 129.48 412.00 129.53 424.03 129.48 436.06 C 129.49 440.72 129.57 445.50 131.12 449.96 C 134.33 459.55 143.14 467.07 153.18 468.51 C 158.77 469.24 164.42 468.95 170.04 469.00 C 312.37 469.00 454.71 468.99 597.05 469.01 C 600.99 468.95 604.99 468.79 608.79 467.60 C 617.72 464.84 624.98 457.30 627.40 448.27 C 628.50 444.28 628.25 440.10 628.26 436.02 C 628.23 424.07 628.25 412.12 628.25 400.17 C 630.99 400.89 633.73 401.61 636.48 402.31 C 636.47 416.19 636.59 430.07 636.44 443.94 C 635.60 460.84 621.12 475.42 604.37 477.00 L 153.57 477.00 C 142.49 475.75 132.14 469.22 126.47 459.59 C 122.86 453.75 121.33 446.85 121.28 440.03 C 121.19 427.40 121.30 414.77 121.23 402.14 Z" />
</g>
</svg>
